<svg xmlns="http://www.w3.org/2000/svg" width="440" height="760" viewBox="0 0 440 760">
  <style>
    @import url('https://fonts.googleapis.com/css2?family=Inter:wght@400;600;700&amp;display=swap');
    text { font-family: 'Inter', Arial, sans-serif; }
  </style>

  <rect width="440" height="760" fill="#f8f8d6" rx="12"/>
  <text x="220" y="28" text-anchor="middle" font-size="13" font-weight="700" fill="#2B2521">D. Тёплый чёрный + терракот</text>

  <!-- Header -->
  <rect x="10" y="42" width="420" height="32" rx="8" fill="#FFFFFF" opacity="0.85"/>
  <text x="220" y="63" text-anchor="middle" font-size="12" font-weight="700" fill="#2B2521">TANSYLATE</text>
  <text x="60" y="62" text-anchor="middle" font-size="8" fill="#6B5C52">Каталог</text>
  <text x="120" y="62" text-anchor="middle" font-size="8" fill="#6B5C52">О бренде</text>
  <text x="310" y="62" text-anchor="middle" font-size="8" fill="#6B5C52">Оплата и доставка</text>
  <text x="395" y="62" text-anchor="middle" font-size="8" fill="#6B5C52">Контакты</text>

  <!-- Hero -->
  <text x="220" y="108" text-anchor="middle" font-size="9" fill="#A0755A" letter-spacing="2">ОСНОВАНО В 2026</text>
  <text x="220" y="132" text-anchor="middle" font-size="20" font-weight="700" fill="#2B2521">История в двух цветах</text>
  <text x="220" y="152" text-anchor="middle" font-size="10" fill="#6B5C52">Одежда, в которой ты разный</text>
  <rect x="175" y="162" width="90" height="28" rx="6" fill="#2B2521"/>
  <text x="220" y="180" text-anchor="middle" font-size="9" fill="#f8f8d6">КАТАЛОГ</text>

  <!-- Catalog section -->
  <text x="220" y="220" text-anchor="middle" font-size="15" font-weight="700" fill="#2B2521">Каталог</text>
  <rect x="30" y="232" width="120" height="100" rx="8" fill="#EEE8D2"/>
  <rect x="165" y="232" width="120" height="100" rx="8" fill="#EEE8D2"/>
  <rect x="300" y="232" width="120" height="100" rx="8" fill="#EEE8D2"/>
  <text x="90" y="350" text-anchor="middle" font-size="8" font-weight="600" fill="#2B2521">Спортивный костюм</text>
  <text x="90" y="362" text-anchor="middle" font-size="7" fill="#6B5C52">12 990 ₽</text>
  <rect x="45" y="368" width="90" height="20" rx="4" fill="#A0755A"/>
  <text x="90" y="381" text-anchor="middle" font-size="7" fill="#FFFFFF">В КОРЗИНУ</text>
  <text x="225" y="350" text-anchor="middle" font-size="8" font-weight="600" fill="#2B2521">Худи</text>
  <text x="225" y="362" text-anchor="middle" font-size="7" fill="#6B5C52">5 490 ₽</text>
  <rect x="180" y="368" width="90" height="20" rx="4" fill="#A0755A"/>
  <text x="225" y="381" text-anchor="middle" font-size="7" fill="#FFFFFF">В КОРЗИНУ</text>
  <text x="360" y="350" text-anchor="middle" font-size="8" font-weight="600" fill="#2B2521">Футболка</text>
  <text x="360" y="362" text-anchor="middle" font-size="7" fill="#6B5C52">3 200 ₽</text>
  <rect x="315" y="368" width="90" height="20" rx="4" fill="#A0755A"/>
  <text x="360" y="381" text-anchor="middle" font-size="7" fill="#FFFFFF">В КОРЗИНУ</text>

  <!-- About section -->
  <rect x="10" y="400" width="420" height="130" rx="8" fill="#EEE8D2"/>
  <text x="30" y="425" font-size="14" font-weight="700" fill="#2B2521">О бренде</text>
  <text x="30" y="445" font-size="8" fill="#6B5C52">Меня зовут Тансылу, мне 16 лет.</text>
  <text x="30" y="458" font-size="8" fill="#6B5C52">Моя цель — создавать настоящую долговечную одежду.</text>
  <rect x="270" y="410" width="145" height="110" rx="6" fill="#DDD5C0"/>

  <!-- Trust section -->
  <text x="220" y="560" text-anchor="middle" font-size="14" font-weight="700" fill="#2B2521">Почему нам верят</text>
  <circle cx="90" cy="590" r="18" fill="none" stroke="#A0755A" stroke-width="1.5"/>
  <text x="90" y="622" text-anchor="middle" font-size="8" font-weight="600" fill="#2B2521">Доставка с примеркой</text>
  <circle cx="220" cy="590" r="18" fill="none" stroke="#A0755A" stroke-width="1.5"/>
  <text x="220" y="622" text-anchor="middle" font-size="8" font-weight="600" fill="#2B2521">Возврат 14 дней</text>
  <circle cx="350" cy="590" r="18" fill="none" stroke="#A0755A" stroke-width="1.5"/>
  <text x="350" y="622" text-anchor="middle" font-size="8" font-weight="600" fill="#2B2521">Премиальные материалы</text>

  <!-- Delivery section -->
  <rect x="10" y="645" width="420" height="70" rx="8" fill="#EEE8D2"/>
  <text x="220" y="665" text-anchor="middle" font-size="12" font-weight="700" fill="#2B2521">Доставка и возврат</text>
  <rect x="25" y="675" width="190" height="30" rx="6" fill="#FFFFFF" stroke="#DDD5C0" stroke-width="0.5"/>
  <text x="120" y="694" text-anchor="middle" font-size="8" font-weight="600" fill="#2B2521">Доставка</text>
  <rect x="225" y="675" width="190" height="30" rx="6" fill="#FFFFFF" stroke="#DDD5C0" stroke-width="0.5"/>
  <text x="320" y="694" text-anchor="middle" font-size="8" font-weight="600" fill="#2B2521">Возврат</text>

  <!-- Footer -->
  <line x1="10" y1="726" x2="430" y2="726" stroke="#DDD5C0" stroke-width="1"/>
  <text x="220" y="745" text-anchor="middle" font-size="7" fill="#6B5C52">© 2026 TANSYLATE. ВСЕ ПРАВА ЗАЩИЩЕНЫ.</text>
</svg>
