<svg xmlns="http://www.w3.org/2000/svg" width="800" height="520" viewBox="0 0 800 520">
  <style>
    @import url('https://fonts.googleapis.com/css2?family=Inter:wght@400;600&amp;display=swap');
    text { font-family: 'Inter', Arial, sans-serif; }
  </style>

  <rect width="800" height="520" fill="#F5F5F0" rx="16"/>
  <text x="400" y="42" text-anchor="middle" font-size="20" font-weight="600" fill="#2D2D2D">4. Шалфей — Olive Sage</text>

  <rect x="30" y="65" width="160" height="120" rx="12" fill="#F5F5EF"/>
  <text x="110" y="210" text-anchor="middle" font-size="11" fill="#555">Основной фон</text>
  <text x="110" y="226" text-anchor="middle" font-size="10" fill="#999">#F5F5EF</text>

  <rect x="210" y="65" width="160" height="120" rx="12" fill="#E4E5DC"/>
  <text x="290" y="210" text-anchor="middle" font-size="11" fill="#555">Секции</text>
  <text x="290" y="226" text-anchor="middle" font-size="10" fill="#999">#E4E5DC</text>

  <rect x="390" y="65" width="160" height="120" rx="12" fill="#FFFFFF" stroke="#D8D9D0" stroke-width="1"/>
  <text x="470" y="210" text-anchor="middle" font-size="11" fill="#555">Карточки</text>
  <text x="470" y="226" text-anchor="middle" font-size="10" fill="#999">#FFFFFF</text>

  <rect x="570" y="65" width="100" height="120" rx="12" fill="#252823"/>
  <text x="620" y="210" text-anchor="middle" font-size="11" fill="#555">Текст</text>
  <text x="620" y="226" text-anchor="middle" font-size="10" fill="#999">#252823</text>

  <rect x="690" y="65" width="80" height="55" rx="10" fill="#6B7A5E"/>
  <text x="730" y="140" text-anchor="middle" font-size="10" fill="#555">Акцент</text>
  <text x="730" y="154" text-anchor="middle" font-size="9" fill="#999">#6B7A5E</text>

  <rect x="690" y="130" width="80" height="55" rx="10" fill="#8E9A82"/>
  <text x="730" y="210" text-anchor="middle" font-size="10" fill="#555">Приглуш.</text>
  <text x="730" y="224" text-anchor="middle" font-size="9" fill="#999">#8E9A82</text>

  <rect x="30" y="250" width="740" height="240" rx="12" fill="#F5F5EF" stroke="#D8D9D0" stroke-width="1"/>
  <rect x="30" y="250" width="740" height="44" rx="12" fill="#FFFFFF"/>
  <rect x="350" y="260" width="100" height="24" rx="4" fill="#252823"/>
  <text x="400" y="277" text-anchor="middle" font-size="11" fill="#FFFFFF" font-weight="600">TANSYLATE</text>
  <text x="400" y="328" text-anchor="middle" font-size="16" fill="#6B7A5E">Основано в 2026</text>
  <text x="400" y="358" text-anchor="middle" font-size="22" font-weight="600" fill="#252823">История в двух цветах</text>
  <rect x="330" y="375" width="140" height="36" rx="10" fill="#252823"/>
  <text x="400" y="398" text-anchor="middle" font-size="11" fill="#FFFFFF">КАТАЛОГ</text>
  <rect x="30" y="425" width="740" height="65" rx="0" fill="#E4E5DC"/>
  <rect x="60" y="438" width="200" height="40" rx="8" fill="#FFFFFF"/>
  <rect x="280" y="438" width="200" height="40" rx="8" fill="#FFFFFF"/>
  <rect x="500" y="438" width="200" height="40" rx="8" fill="#FFFFFF"/>
</svg>
