<?xml version="1.0" standalone="no"?>
<!DOCTYPE svg PUBLIC "-//W3C//DTD SVG 20010904//EN"
 "http://www.w3.org/TR/2001/REC-SVG-20010904/DTD/svg10.dtd">
<svg version="1.0" xmlns="http://www.w3.org/2000/svg"
 width="1179.000000pt" height="1167.000000pt" viewBox="0 0 1179.000000 1167.000000"
 preserveAspectRatio="xMidYMid meet">

<g transform="translate(0.000000,1167.000000) scale(0.100000,-0.100000)"
fill="#000000" stroke="none">
<path d="M6168 8049 c-512 -30 -917 -177 -1273 -459 -339 -270 -540 -595 -606
-981 -18 -107 -21 -150 -16 -314 8 -271 45 -434 143 -629 192 -381 546 -635
969 -696 270 -38 591 35 829 188 289 187 500 503 581 872 22 102 30 315 16
431 -16 137 -54 284 -72 283 -7 -1 -50 -9 -93 -18 -258 -54 -513 -38 -756 50
-237 85 -334 177 -334 319 1 114 69 198 219 270 290 139 610 156 1065 59 470
-101 809 -242 1195 -497 353 -234 641 -484 982 -852 188 -204 186 -201 179
-233 -16 -66 -93 -258 -156 -387 -180 -369 -454 -712 -868 -1088 -35 -31 -57
-57 -49 -57 8 0 72 19 143 41 643 205 1229 573 1764 1109 170 169 330 343 330
358 0 29 -806 837 -1010 1012 -831 716 -1619 1093 -2500 1199 -105 13 -414 31
-495 29 -33 0 -117 -4 -187 -9z"/>
<path d="M3599 7330 c-671 -200 -1280 -580 -1853 -1155 -140 -141 -316 -334
-316 -347 0 -17 696 -724 840 -853 650 -587 1188 -935 1804 -1166 354 -133
643 -197 986 -218 205 -13 406 -2 620 36 499 87 1063 369 1518 761 120 103
334 315 451 448 93 105 241 291 266 333 13 22 -4 9 -178 -136 -323 -269 -523
-407 -787 -538 -440 -220 -939 -335 -1455 -335 -491 0 -894 108 -1423 381
-426 219 -742 456 -1108 831 -142 146 -343 372 -367 414 -9 16 60 225 118 357
53 120 159 305 238 412 116 158 296 348 679 713 55 52 90 92 80 91 -9 0 -60
-14 -113 -29z"/>
</g>
</svg>
