<?xml version="1.0" standalone="no"?>
<!DOCTYPE svg PUBLIC "-//W3C//DTD SVG 20010904//EN"
 "http://www.w3.org/TR/2001/REC-SVG-20010904/DTD/svg10.dtd">
<svg version="1.0" xmlns="http://www.w3.org/2000/svg"
 width="821.000000pt" height="315.000000pt" viewBox="0 0 821.000000 315.000000"
 preserveAspectRatio="xMidYMid meet">

<g transform="translate(0.000000,315.000000) scale(0.100000,-0.100000)"
fill="#000000" stroke="none">
<path d="M5185 2295 c-382 -61 -641 -276 -856 -709 -38 -76 -71 -141 -73 -143
-2 -3 -50 73 -107 169 -56 95 -128 216 -159 268 l-56 95 -77 3 c-54 2 -77 -1
-77 -9 0 -6 68 -118 152 -248 161 -251 198 -320 223 -416 64 -249 -104 -512
-363 -566 -34 -7 -99 -9 -162 -6 -192 9 -306 63 -465 222 -103 103 -158 177
-119 160 196 -84 432 -82 552 5 55 40 82 94 82 165 0 142 -95 215 -393 304
-160 48 -224 78 -261 121 -50 60 -25 150 53 190 136 69 313 66 460 -7 30 -15
59 -29 63 -31 5 -2 8 21 8 51 l0 54 -52 7 c-340 42 -585 -13 -655 -148 -22
-42 -20 -124 6 -173 39 -78 124 -123 369 -197 243 -74 307 -116 307 -204 0
-93 -77 -151 -212 -160 -175 -11 -278 53 -430 265 l-48 68 -3 -93 c-3 -89 -1
-95 34 -165 125 -249 377 -448 632 -497 101 -20 253 -9 337 25 99 40 186 97
245 162 83 90 109 158 145 369 33 199 103 372 222 553 200 301 475 447 838
445 227 -1 386 -63 465 -182 32 -49 37 -79 19 -133 -72 -217 -266 -754 -285
-786 -13 -23 -24 -46 -24 -52 0 -6 21 -11 50 -11 45 0 50 2 50 22 0 40 42 110
108 180 75 79 195 146 270 150 l44 3 48 -135 c26 -74 51 -154 55 -177 l7 -43
74 0 c41 0 74 2 74 5 0 3 -11 27 -25 54 -13 27 -88 228 -166 447 -77 220 -152
421 -166 449 -112 225 -413 336 -758 280z m769 -628 c36 -104 66 -190 66 -192
0 -2 -24 -8 -52 -15 -77 -18 -168 -63 -222 -111 -26 -23 -49 -39 -52 -36 -4 3
35 130 86 282 51 152 96 273 100 268 4 -4 37 -93 74 -196z"/>
<path d="M2545 1972 c-2 -2 9 -27 23 -55 l27 -51 3 -300 c3 -256 1 -298 -11
-288 -7 6 -139 163 -293 347 l-279 335 -64 0 -64 0 20 -22 c42 -47 47 -80 51
-381 4 -317 -4 -404 -44 -462 l-23 -35 96 0 c92 0 95 1 80 18 -47 52 -51 81
-55 395 -2 163 0 297 5 296 4 0 49 -50 99 -112 404 -501 487 -597 509 -597
l24 0 4 393 c4 407 7 439 48 491 23 30 33 26 -84 29 -38 1 -70 1 -72 -1z"/>
<path d="M40 1895 c0 -36 2 -65 4 -65 3 0 24 13 48 29 62 40 101 51 190 51
l79 0 -3 -425 -3 -425 69 0 c61 0 67 2 60 18 -5 9 -10 201 -12 426 l-3 408 98
-4 c99 -4 132 -15 201 -64 l22 -16 0 66 0 66 -375 0 -375 0 0 -65z"/>
<path d="M1266 1948 c-26 -88 -276 -778 -297 -820 -16 -32 -29 -60 -29 -63 0
-3 22 -5 49 -5 48 0 49 0 56 38 15 81 135 211 247 268 46 24 166 59 173 52 11
-11 98 -270 103 -308 l7 -45 78 -3 c42 -2 77 0 77 3 0 4 -11 25 -24 48 -13 23
-88 223 -167 445 l-144 402 -63 0 c-41 0 -64 -4 -66 -12z m111 -275 c39 -109
70 -199 68 -201 -1 -1 -29 -9 -61 -17 -81 -21 -156 -59 -220 -111 -30 -25 -54
-41 -54 -37 0 16 185 563 190 563 3 0 38 -89 77 -197z"/>
<path d="M4802 1916 c11 -53 6 -814 -6 -838 -8 -17 9 -18 283 -18 l291 0 0 55
c0 30 -3 55 -6 55 -3 0 -19 -9 -34 -20 -57 -41 -105 -50 -256 -50 -130 0 -144
2 -144 18 -3 201 2 802 6 819 6 23 5 23 -69 23 l-75 0 10 -44z"/>
<path d="M6470 1895 l0 -65 47 30 c62 39 102 50 191 50 l73 0 -3 -425 -3 -425
65 0 65 0 -3 425 -3 425 73 0 c89 0 129 -11 191 -50 l47 -30 0 65 0 65 -370 0
-370 0 0 -65z"/>
<path d="M7385 1510 l0 -450 288 0 287 0 0 54 0 55 -64 -34 c-74 -38 -182 -52
-311 -40 l-75 7 0 194 0 194 100 0 c102 0 141 -10 169 -44 25 -30 31 -16 31
64 0 44 -3 80 -7 80 -5 -1 -24 -14 -43 -30 -33 -29 -37 -30 -142 -30 l-108 0
2 198 3 197 145 0 c154 -1 197 -9 263 -51 l37 -24 0 55 0 55 -287 0 -288 0 0
-450z"/>
</g>
</svg>
